<svg width="37" height="37" viewBox="0 0 37 37" fill="none" xmlns="http://www.w3.org/2000/svg">
<path fill-rule="evenodd" clip-rule="evenodd" d="M18.5 3.49927C12.695 3.49927 7.99997 8.19427 7.99997 13.9993C7.99997 20.2543 14.63 28.8793 17.36 32.1643C17.96 32.8843 19.055 32.8843 19.655 32.1643C22.37 28.8793 29 20.2543 29 13.9993C29 8.19427 24.305 3.49927 18.5 3.49927ZM18.5 17.7493C16.43 17.7493 14.75 16.0693 14.75 13.9993C14.75 11.9293 16.43 10.2493 18.5 10.2493C20.57 10.2493 22.25 11.9293 22.25 13.9993C22.25 16.0693 20.57 17.7493 18.5 17.7493Z" fill="#F64538"/>
</svg>
