<svg width="37" height="37" viewBox="0 0 37 37" fill="none" xmlns="http://www.w3.org/2000/svg">
<path fill-rule="evenodd" clip-rule="evenodd" d="M30.4999 6.49927H6.49988C4.84988 6.49927 3.49988 7.84927 3.49988 9.49927V27.4993C3.49988 29.1493 4.84988 30.4993 6.49988 30.4993H30.4999C32.1499 30.4993 33.4999 29.1493 33.4999 27.4993V9.49927C33.4999 7.84927 32.1499 6.49927 30.4999 6.49927ZM29.8999 12.8743L20.0899 19.0093C19.1149 19.6243 17.8849 19.6243 16.9099 19.0093L7.09988 12.8743C6.72488 12.6343 6.49988 12.2293 6.49988 11.7943C6.49988 10.7893 7.59488 10.1893 8.44988 10.7143L18.4999 16.9993L28.5499 10.7143C29.4049 10.1893 30.4999 10.7893 30.4999 11.7943C30.4999 12.2293 30.2749 12.6343 29.8999 12.8743Z" fill="#F64538"/>
</svg>
