<svg width="37" height="37" viewBox="0 0 37 37" fill="none" xmlns="http://www.w3.org/2000/svg">
<path fill-rule="evenodd" clip-rule="evenodd" d="M29.3451 23.3894L25.5351 22.9544C24.6201 22.8494 23.7201 23.1644 23.0751 23.8094L20.3151 26.5694C16.0701 24.4094 12.5901 20.9444 10.4301 16.6844L13.2051 13.9094C13.8501 13.2644 14.1651 12.3644 14.0601 11.4494L13.6251 7.6694C13.4451 6.1544 12.1701 5.0144 10.6401 5.0144H8.04506C6.35006 5.0144 4.94006 6.4244 5.04506 8.11941C5.84006 20.9294 16.0851 31.1594 28.8801 31.9544C30.5751 32.0594 31.9851 30.6494 31.9851 28.9544V26.3594C32.0001 24.8444 30.8601 23.5694 29.3451 23.3894Z" fill="#F64538"/>
</svg>
